<?xml version="1.0" encoding="UTF-8" standalone="no"?>
<svg
   xmlns:dc="http://purl.org/dc/elements/1.1/"
   xmlns:cc="http://creativecommons.org/ns#"
   xmlns:rdf="http://www.w3.org/1999/02/22-rdf-syntax-ns#"
   xmlns:svg="http://www.w3.org/2000/svg"
   xmlns="http://www.w3.org/2000/svg"
   xml:space="preserve"
   viewBox="0 0 330.24358 418.62078"
   height="418.62076"
   width="330.24359"
   y="0px"
   x="0px"
   id="Capa_1"
   version="1.1"><metadata
     id="metadata47"><rdf:RDF><cc:Work
         rdf:about=""><dc:format>image/svg+xml</dc:format><dc:type
           rdf:resource="http://purl.org/dc/dcmitype/StillImage" /><dc:title></dc:title></cc:Work></rdf:RDF></metadata><defs
     id="defs45" /><g
     transform="translate(-18.779325,130.76284)"
     id="g3"><g
       id="g5"><g
         id="g3364"><g
           id="g4196"
           transform="translate(24.000002,-225.00002)"
           style="fill:#eca14f"><g
             style="fill:#eca14f"
             transform="matrix(0.93913993,0.34353485,-0.34353485,0.93913993,68.142671,-46.511373)"
             id="g4175"><path
               style="fill:#eca14f"
               d="m 327.061,159.368 c -0.466,-5.621 -0.989,-11.982 -2.01,-17.471 -0.709,-3.839 -2.268,-8.951 -7.539,-8.951 -0.528,0 -1.057,0.052 -1.579,0.106 -0.326,0.031 -0.652,0.075 -1.186,0.085 -0.011,0 -0.182,-0.166 -0.399,-0.797 -1.548,-4.433 -8.041,-9.947 -16.367,-16.691 -2.051,-1.655 -4.506,-3.648 -5.552,-4.676 0.384,-2.656 0.327,-5.918 -1.522,-8.166 -0.859,-1.049 -2.475,-2.302 -5.261,-2.302 -0.409,0 -0.844,0.025 -1.812,0.111 -2.01,0 -6.038,-0.826 -11.615,-1.979 -14.38,-2.951 -41.146,-8.45 -81.281,-9.315 C 132.5,88.165 86.579,130.336 84.686,132.112 l -1.354,1.258 c -2.4,1.16 -9.979,3.933 -33.145,8.487 -32.858,6.47 -39.126,16.938 -40.31,20.986 -2.623,1.958 -6.871,6.628 -7.544,12.122 -0.541,4.381 -1.766,6.173 -1.766,6.168 L 0,181.864 l 0,30.924 0.064,0.564 c 1.781,8.212 10.292,12.557 24.612,12.557 4.567,0 7.993,-0.466 7.86,-0.466 0.199,-0.011 1.965,-0.041 5.025,-0.104 -0.313,-0.865 -0.598,-1.74 -0.844,-2.636 -0.238,-0.864 -0.456,-1.734 -0.624,-2.625 -0.404,-2.098 -0.631,-4.257 -0.631,-6.473 0,-19.004 15.461,-34.466 34.465,-34.466 19.004,0 34.466,15.462 34.466,34.466 0,1.719 -0.168,3.386 -0.409,5.038 -0.132,0.896 -0.285,1.786 -0.487,2.656 -0.207,0.901 -0.424,1.792 -0.699,2.667 43.038,-0.922 97.802,-2.139 140.216,-3.205 -0.187,-0.87 -0.306,-1.751 -0.425,-2.642 -0.119,-0.88 -0.187,-1.76 -0.233,-2.65 -0.031,-0.622 -0.093,-1.232 -0.093,-1.864 0,-19.004 15.462,-34.466 34.465,-34.466 18.735,0 34,15.037 34.425,33.679 0,0.259 0.041,0.522 0.041,0.787 0,0.668 -0.062,1.32 -0.104,1.983 -0.052,0.942 -0.145,1.879 -0.269,2.801 8.098,-1.336 14.188,-5.603 17.714,-12.505 6.032,-11.801 2.957,-27.78 0.792,-31.173 -1.169,-1.836 -1.749,-9.013 -2.266,-15.343 z"
               id="path7" /><path
               style="fill:#eca14f"
               d="m 43.178,225.215 c 4.492,10.325 14.768,17.548 26.745,17.548 12.407,0 22.975,-7.762 27.19,-18.677 0.334,-0.87 0.632,-1.761 0.886,-2.672 0.243,-0.87 0.445,-1.761 0.611,-2.662 0.295,-1.672 0.481,-3.392 0.481,-5.151 0,-16.109 -13.054,-29.164 -29.163,-29.164 -16.109,0 -29.163,13.055 -29.163,29.164 0,2.185 0.259,4.312 0.717,6.363 0.194,0.891 0.427,1.766 0.709,2.62 0.288,0.902 0.617,1.771 0.987,2.631 z"
               id="path9" /><path
               style="fill:#eca14f"
               d="m 248.436,220.617 c 3.148,12.707 14.603,22.146 28.283,22.146 14.302,0 26.176,-10.309 28.661,-23.892 0.16,-0.88 0.284,-1.766 0.372,-2.672 0.078,-0.859 0.13,-1.719 0.13,-2.599 0,-0.021 0,-0.042 0,-0.068 -0.031,-16.072 -13.08,-29.096 -29.163,-29.096 -16.104,0 -29.163,13.055 -29.163,29.164 0,0.585 0.057,1.154 0.088,1.734 0.052,0.896 0.14,1.775 0.274,2.646 0.135,0.892 0.311,1.772 0.518,2.637 z"
               id="path11" /></g></g><text
           xml:space="preserve"
           style="font-style:normal;font-weight:normal;font-size:361.86727905px;line-height:125%;font-family:sans-serif;letter-spacing:0px;word-spacing:0px;fill:#3139ae;fill-opacity:1;stroke:none;stroke-width:1px;stroke-linecap:butt;stroke-linejoin:miter;stroke-opacity:1"
           x="71.635406"
           y="332.7146"
           id="text3360"
           transform="scale(1.1558292,0.86517974)"><tspan
             id="tspan3362"
             x="71.635406"
             y="332.7146"
             style="fill:#3139ae">T</tspan></text>
</g></g></g><g
     transform="translate(-98.980984,223.62792)"
     id="g13" /><g
     transform="translate(-98.980984,223.62792)"
     id="g15" /><g
     transform="translate(-98.980984,223.62792)"
     id="g17" /><g
     transform="translate(-98.980984,223.62792)"
     id="g19" /><g
     transform="translate(-98.980984,223.62792)"
     id="g21" /><g
     transform="translate(-98.980984,223.62792)"
     id="g23" /><g
     transform="translate(-98.980984,223.62792)"
     id="g25" /><g
     transform="translate(-98.980984,223.62792)"
     id="g27" /><g
     transform="translate(-98.980984,223.62792)"
     id="g29" /><g
     transform="translate(-98.980984,223.62792)"
     id="g31" /><g
     transform="translate(-98.980984,223.62792)"
     id="g33" /><g
     transform="translate(-98.980984,223.62792)"
     id="g35" /><g
     transform="translate(-98.980984,223.62792)"
     id="g37" /><g
     transform="translate(-98.980984,223.62792)"
     id="g39" /><g
     transform="translate(-98.980984,223.62792)"
     id="g41" /></svg>