<?xml version="1.0" encoding="UTF-8" standalone="no"?>
<!-- Generator: Adobe Illustrator 16.0.0, SVG Export Plug-In . SVG Version: 6.00 Build 0)  -->

<svg
   xmlns:dc="http://purl.org/dc/elements/1.1/"
   xmlns:cc="http://creativecommons.org/ns#"
   xmlns:rdf="http://www.w3.org/1999/02/22-rdf-syntax-ns#"
   xmlns:svg="http://www.w3.org/2000/svg"
   xmlns="http://www.w3.org/2000/svg"
   xmlns:sodipodi="http://sodipodi.sourceforge.net/DTD/sodipodi-0.dtd"
   xmlns:inkscape="http://www.inkscape.org/namespaces/inkscape"
   version="1.1"
   id="Capa_1"
   x="0px"
   y="0px"
   width="433.99997"
   height="215.69089"
   viewBox="0 0 433.99995 215.6909"
   xml:space="preserve"
   inkscape:version="0.91 r13725"
   sodipodi:docname="taltos-logo-2016.svg"><metadata
     id="metadata47"><rdf:RDF><cc:Work
         rdf:about=""><dc:format>image/svg+xml</dc:format><dc:type
           rdf:resource="http://purl.org/dc/dcmitype/StillImage" /><dc:title></dc:title></cc:Work></rdf:RDF></metadata><defs
     id="defs45" /><sodipodi:namedview
     pagecolor="#ffffff"
     bordercolor="#666666"
     borderopacity="1"
     objecttolerance="10"
     gridtolerance="10"
     guidetolerance="10"
     inkscape:pageopacity="0"
     inkscape:pageshadow="2"
     inkscape:window-width="1920"
     inkscape:window-height="1057"
     id="namedview43"
     showgrid="false"
     inkscape:zoom="1"
     inkscape:cx="568.43375"
     inkscape:cy="104.1494"
     inkscape:window-x="-8"
     inkscape:window-y="-8"
     inkscape:window-maximized="1"
     inkscape:current-layer="g5"
     fit-margin-top="0"
     fit-margin-left="0"
     fit-margin-right="0"
     fit-margin-bottom="0" /><g
     id="g3"
     transform="translate(51.20166,-94.237175)"><g
       id="g5"><g
         id="g4196"><g
           style="fill:#4d4d4d"
           transform="matrix(0.93913993,0.34353485,-0.34353485,0.93913993,68.142671,-46.511373)"
           id="g4175"><path
             style="fill:#4d4d4d"
             d="m 327.061,159.368 c -0.466,-5.621 -0.989,-11.982 -2.01,-17.471 -0.709,-3.839 -2.268,-8.951 -7.539,-8.951 -0.528,0 -1.057,0.052 -1.579,0.106 -0.326,0.031 -0.652,0.075 -1.186,0.085 -0.011,0 -0.182,-0.166 -0.399,-0.797 -1.548,-4.433 -8.041,-9.947 -16.367,-16.691 -2.051,-1.655 -4.506,-3.648 -5.552,-4.676 0.384,-2.656 0.327,-5.918 -1.522,-8.166 -0.859,-1.049 -2.475,-2.302 -5.261,-2.302 -0.409,0 -0.844,0.025 -1.812,0.111 -2.01,0 -6.038,-0.826 -11.615,-1.979 -14.38,-2.951 -41.146,-8.45 -81.281,-9.315 C 132.5,88.165 86.579,130.336 84.686,132.112 l -1.354,1.258 c -2.4,1.16 -9.979,3.933 -33.145,8.487 -32.858,6.47 -39.126,16.938 -40.31,20.986 -2.623,1.958 -6.871,6.628 -7.544,12.122 -0.541,4.381 -1.766,6.173 -1.766,6.168 L 0,181.864 l 0,30.924 0.064,0.564 c 1.781,8.212 10.292,12.557 24.612,12.557 4.567,0 7.993,-0.466 7.86,-0.466 0.199,-0.011 1.965,-0.041 5.025,-0.104 -0.313,-0.865 -0.598,-1.74 -0.844,-2.636 -0.238,-0.864 -0.456,-1.734 -0.624,-2.625 -0.404,-2.098 -0.631,-4.257 -0.631,-6.473 0,-19.004 15.461,-34.466 34.465,-34.466 19.004,0 34.466,15.462 34.466,34.466 0,1.719 -0.168,3.386 -0.409,5.038 -0.132,0.896 -0.285,1.786 -0.487,2.656 -0.207,0.901 -0.424,1.792 -0.699,2.667 43.038,-0.922 97.802,-2.139 140.216,-3.205 -0.187,-0.87 -0.306,-1.751 -0.425,-2.642 -0.119,-0.88 -0.187,-1.76 -0.233,-2.65 -0.031,-0.622 -0.093,-1.232 -0.093,-1.864 0,-19.004 15.462,-34.466 34.465,-34.466 18.735,0 34,15.037 34.425,33.679 0,0.259 0.041,0.522 0.041,0.787 0,0.668 -0.062,1.32 -0.104,1.983 -0.052,0.942 -0.145,1.879 -0.269,2.801 8.098,-1.336 14.188,-5.603 17.714,-12.505 6.032,-11.801 2.957,-27.78 0.792,-31.173 -1.169,-1.836 -1.749,-9.013 -2.266,-15.343 z"
             id="path7"
             inkscape:connector-curvature="0" /><path
             style="fill:#4d4d4d"
             d="m 43.178,225.215 c 4.492,10.325 14.768,17.548 26.745,17.548 12.407,0 22.975,-7.762 27.19,-18.677 0.334,-0.87 0.632,-1.761 0.886,-2.672 0.243,-0.87 0.445,-1.761 0.611,-2.662 0.295,-1.672 0.481,-3.392 0.481,-5.151 0,-16.109 -13.054,-29.164 -29.163,-29.164 -16.109,0 -29.163,13.055 -29.163,29.164 0,2.185 0.259,4.312 0.717,6.363 0.194,0.891 0.427,1.766 0.709,2.62 0.288,0.902 0.617,1.771 0.987,2.631 z"
             id="path9"
             inkscape:connector-curvature="0" /><path
             style="fill:#4d4d4d"
             d="m 248.436,220.617 c 3.148,12.707 14.603,22.146 28.283,22.146 14.302,0 26.176,-10.309 28.661,-23.892 0.16,-0.88 0.284,-1.766 0.372,-2.672 0.078,-0.859 0.13,-1.719 0.13,-2.599 0,-0.021 0,-0.042 0,-0.068 -0.031,-16.072 -13.08,-29.096 -29.163,-29.096 -16.104,0 -29.163,13.055 -29.163,29.164 0,0.585 0.057,1.154 0.088,1.734 0.052,0.896 0.14,1.775 0.274,2.646 0.135,0.892 0.311,1.772 0.518,2.637 z"
             id="path11"
             inkscape:connector-curvature="0" /></g><path
           inkscape:connector-curvature="0"
           id="path4186"
           d="m -51.201691,304.42807 c 433.000001,0 434.000001,0 434.000001,0"
           style="fill:#a8a8a8;fill-rule:evenodd;stroke:#737373;stroke-width:11.00000095;stroke-linecap:butt;stroke-linejoin:miter;stroke-miterlimit:4;stroke-dasharray:none;stroke-opacity:1" /></g></g></g><g
     id="g13"
     transform="translate(-28.999999,-1.3720962)" /><g
     id="g15"
     transform="translate(-28.999999,-1.3720962)" /><g
     id="g17"
     transform="translate(-28.999999,-1.3720962)" /><g
     id="g19"
     transform="translate(-28.999999,-1.3720962)" /><g
     id="g21"
     transform="translate(-28.999999,-1.3720962)" /><g
     id="g23"
     transform="translate(-28.999999,-1.3720962)" /><g
     id="g25"
     transform="translate(-28.999999,-1.3720962)" /><g
     id="g27"
     transform="translate(-28.999999,-1.3720962)" /><g
     id="g29"
     transform="translate(-28.999999,-1.3720962)" /><g
     id="g31"
     transform="translate(-28.999999,-1.3720962)" /><g
     id="g33"
     transform="translate(-28.999999,-1.3720962)" /><g
     id="g35"
     transform="translate(-28.999999,-1.3720962)" /><g
     id="g37"
     transform="translate(-28.999999,-1.3720962)" /><g
     id="g39"
     transform="translate(-28.999999,-1.3720962)" /><g
     id="g41"
     transform="translate(-28.999999,-1.3720962)" /></svg>